<?xml version="1.0" encoding="UTF-8"?>
<svg xmlns="http://www.w3.org/2000/svg" viewBox="0 0 16 16" width="16" height="16">
  <defs id="defs3051">
    <style type="text/css" id="current-color-scheme">
      .ColorScheme-Text {
        color: #232629;
      }
    </style>
  </defs>
  <!-- Outer cheese wedge outline rendered filled with hole cutouts -->
  <path class="ColorScheme-Text"
        style="fill: currentColor; fill-opacity: 1; stroke: none;"
        d="M 2.4 4.5 L 13.6 3.6 C 14.5 3.5 15.1 4.5 14.6 5.3 L 6.6 13.8 C 6.0 14.4 5.0 14.2 4.6 13.5 L 1.5 6.4 C 1.1 5.6 1.6 4.6 2.4 4.5 Z
           M 6 7 A 1.1 1.1 0 1 0 6 9.2 A 1.1 1.1 0 1 0 6 7 Z
           M 9.5 6 A 0.85 0.85 0 1 0 9.5 7.7 A 0.85 0.85 0 1 0 9.5 6 Z
           M 7.5 9.7 A 0.85 0.85 0 1 0 7.5 11.4 A 0.85 0.85 0 1 0 7.5 9.7 Z"
        fill-rule="evenodd" />
</svg>
